<svg width="32" height="32" viewBox="0 0 32 32" fill="none" xmlns="http://www.w3.org/2000/svg">
<path d="M16.6668 24C16.6668 24.3682 16.3684 24.6666 16.0002 24.6666C15.632 24.6666 15.3335 24.3682 15.3335 24C15.3335 23.6318 15.632 23.3333 16.0002 23.3333C16.3684 23.3333 16.6668 23.6318 16.6668 24Z" stroke="black"/>
<path d="M12.6665 19.4169C13.6019 18.7354 14.7539 18.3333 15.9998 18.3333C17.2458 18.3333 18.3978 18.7354 19.3332 19.4169" stroke="black" stroke-width="1.5" stroke-linecap="round" stroke-linejoin="round"/>
<path d="M22.2837 14.9701C20.5024 13.7282 18.3364 13 16.0003 13C13.6641 13 11.4981 13.7282 9.7168 14.9701" stroke="black" stroke-width="1.5" stroke-linecap="round" stroke-linejoin="round"/>
<path d="M6.6665 10.5943C9.31212 8.74892 12.5296 7.66669 15.9998 7.66669C19.4701 7.66669 22.6876 8.74892 25.3332 10.5943" stroke="black" stroke-width="1.5" stroke-linecap="round" stroke-linejoin="round"/>
</svg>
