<svg width="32" height="32" viewBox="0 0 32 32" fill="none" xmlns="http://www.w3.org/2000/svg">
<path d="M22.9724 9.02775L22.2313 8.91261C22.1945 9.14907 22.2728 9.38887 22.4421 9.55808C22.6113 9.72729 22.8511 9.8056 23.0875 9.76886L22.9724 9.02775ZM21.5905 12.8846L22.1505 12.3858C22.0132 12.2316 21.8185 12.1408 21.6121 12.1349C21.4058 12.1289 21.2061 12.2083 21.0601 12.3542L21.5905 12.8846ZM12.8847 21.5903L12.3544 21.0599C12.2084 21.2059 12.1291 21.4056 12.1351 21.6119C12.141 21.8183 12.2318 22.0131 12.3859 22.1504L12.8847 21.5903ZM9.02794 22.9722L9.76905 23.0873C9.80578 22.8509 9.72748 22.6111 9.55827 22.4419C9.38905 22.2727 9.14925 22.1944 8.91279 22.2311L9.02794 22.9722ZM10.4099 19.1154L9.84979 19.6142C9.98708 19.7684 10.1818 19.8591 10.3882 19.8651C10.5945 19.8711 10.7942 19.7917 10.9402 19.6457L10.4099 19.1154ZM19.1156 10.4097L19.6459 10.94C19.7919 10.794 19.8712 10.5944 19.8653 10.388C19.8593 10.1817 19.7685 9.9869 19.6144 9.84961L19.1156 10.4097ZM23.7135 9.1429C23.7377 8.98725 23.7502 8.82815 23.7502 8.66665H22.2502C22.2502 8.75077 22.2437 8.83288 22.2313 8.91261L23.7135 9.1429ZM23.3335 8.24998C23.172 8.24998 23.0129 8.26246 22.8572 8.28665L23.0875 9.76886C23.1673 9.75648 23.2494 9.74998 23.3335 9.74998V8.24998ZM26.4168 11.3333C26.4168 9.63044 25.0364 8.24998 23.3335 8.24998V9.74998C24.2079 9.74998 24.9168 10.4589 24.9168 11.3333H26.4168ZM23.3335 14.4166C25.0364 14.4166 26.4168 13.0362 26.4168 11.3333H24.9168C24.9168 12.2078 24.2079 12.9166 23.3335 12.9166V14.4166ZM21.0304 13.3834C21.594 14.0163 22.4175 14.4166 23.3335 14.4166V12.9166C22.8632 12.9166 22.4416 12.7126 22.1505 12.3858L21.0304 13.3834ZM13.4151 22.1206L22.1208 13.4149L21.0601 12.3542L12.3544 21.0599L13.4151 22.1206ZM14.4168 23.3333C14.4168 22.4173 14.0164 21.5938 13.3836 21.0302L12.3859 22.1504C12.7128 22.4414 12.9168 22.8631 12.9168 23.3333H14.4168ZM11.3335 26.4166C13.0364 26.4166 14.4168 25.0362 14.4168 23.3333H12.9168C12.9168 24.2078 12.2079 24.9166 11.3335 24.9166V26.4166ZM8.25016 23.3333C8.25016 25.0362 9.63062 26.4166 11.3335 26.4166V24.9166C10.459 24.9166 9.75016 24.2078 9.75016 23.3333H8.25016ZM8.28683 22.8571C8.26265 23.0127 8.25016 23.1718 8.25016 23.3333H9.75016C9.75016 23.2492 9.75666 23.1671 9.76905 23.0873L8.28683 22.8571ZM8.66683 23.75C8.82833 23.75 8.98743 23.7375 9.14308 23.7133L8.91279 22.2311C8.83306 22.2435 8.75096 22.25 8.66683 22.25V23.75ZM5.5835 20.6666C5.5835 22.3695 6.96395 23.75 8.66683 23.75V22.25C7.79238 22.25 7.0835 21.5411 7.0835 20.6666H5.5835ZM8.66683 17.5833C6.96395 17.5833 5.5835 18.9638 5.5835 20.6666H7.0835C7.0835 19.7922 7.79238 19.0833 8.66683 19.0833V17.5833ZM10.9699 18.6166C10.4063 17.9837 9.58284 17.5833 8.66683 17.5833V19.0833C9.13709 19.0833 9.55871 19.2874 9.84979 19.6142L10.9699 18.6166ZM18.5853 9.87936L9.87954 18.5851L10.9402 19.6457L19.6459 10.94L18.5853 9.87936ZM17.5835 8.66665C17.5835 9.58265 17.9839 10.4061 18.6168 10.9698L19.6144 9.84961C19.2876 9.55853 19.0835 9.1369 19.0835 8.66665H17.5835ZM20.6668 5.58331C18.964 5.58331 17.5835 6.96377 17.5835 8.66665H19.0835C19.0835 7.7922 19.7924 7.08331 20.6668 7.08331V5.58331ZM23.7502 8.66665C23.7502 6.96377 22.3697 5.58331 20.6668 5.58331V7.08331C21.5413 7.08331 22.2502 7.7922 22.2502 8.66665H23.7502Z" fill="#141414"/>
</svg>
