<svg width="109" height="35" viewBox="0 0 109 35" fill="none" xmlns="http://www.w3.org/2000/svg">
<path d="M57.4458 8.79379C57.4458 10.0551 56.4583 11.0711 55.2324 11.0711C54.0065 11.0711 53.019 10.0551 53.019 8.79379C53.019 7.53253 53.9725 6.51652 55.2324 6.51652C56.4923 6.55155 57.4458 7.56757 57.4458 8.79379ZM48.3199 13.3834C48.3199 13.5936 48.3199 13.9439 48.3199 13.9439C48.3199 13.9439 47.2643 12.5425 45.0168 12.5425C41.3052 12.5425 38.4108 15.4504 38.4108 19.4795C38.4108 23.4735 41.2711 26.4164 45.0168 26.4164C47.2983 26.4164 48.3199 24.98 48.3199 24.98V25.5756C48.3199 25.8559 48.5242 26.0661 48.7966 26.0661H51.5548V12.8929C51.5548 12.8929 49.035 12.8929 48.7966 12.8929C48.5242 12.8929 48.3199 13.1381 48.3199 13.3834ZM48.3199 21.8268C47.8091 22.5976 46.7875 23.2633 45.5617 23.2633C43.3823 23.2633 41.7138 21.8619 41.7138 19.4795C41.7138 17.0971 43.3823 15.6957 45.5617 15.6957C46.7535 15.6957 47.8431 16.3964 48.3199 17.1321V21.8268ZM53.5979 12.8929H56.8669V26.0661H53.5979V12.8929ZM102.428 12.5425C100.181 12.5425 99.1252 13.9439 99.1252 13.9439V6.55155H95.8563V26.0661C95.8563 26.0661 98.3761 26.0661 98.6145 26.0661C98.8869 26.0661 99.0912 25.8208 99.0912 25.5756V24.98C99.0912 24.98 100.147 26.4164 102.394 26.4164C106.106 26.4164 109 23.4735 109 19.4795C109 15.4855 106.106 12.5425 102.428 12.5425ZM101.883 23.2282C100.624 23.2282 99.636 22.5626 99.1252 21.7918V17.0971C99.636 16.3964 100.726 15.6607 101.883 15.6607C104.063 15.6607 105.731 17.0621 105.731 19.4444C105.731 21.8268 104.063 23.2282 101.883 23.2282ZM94.1537 18.2533V26.1011H90.8847V18.6386C90.8847 16.4665 90.2037 15.5906 88.3649 15.5906C87.3773 15.5906 86.3558 16.1161 85.7088 16.8869V26.0661H82.4398V12.8929H85.0278C85.3002 12.8929 85.5045 13.1381 85.5045 13.3834V13.9439C86.4579 12.9279 87.7179 12.5425 88.9778 12.5425C90.408 12.5425 91.5998 12.963 92.5532 13.8038C93.711 14.7848 94.1537 16.046 94.1537 18.2533ZM74.5057 12.5425C72.2583 12.5425 71.2027 13.9439 71.2027 13.9439V6.55155H67.9337V26.0661C67.9337 26.0661 70.4536 26.0661 70.6919 26.0661C70.9644 26.0661 71.1687 25.8208 71.1687 25.5756V24.98C71.1687 24.98 72.2243 26.4164 74.4717 26.4164C78.1833 26.4164 81.0778 23.4735 81.0778 19.4795C81.1118 15.4855 78.2174 12.5425 74.5057 12.5425ZM73.9609 23.2282C72.701 23.2282 71.7135 22.5626 71.2027 21.7918V17.0971C71.7135 16.3964 72.8032 15.6607 73.9609 15.6607C76.1402 15.6607 77.8088 17.0621 77.8088 19.4444C77.8088 21.8268 76.1402 23.2282 73.9609 23.2282ZM65.1074 12.5425C66.0949 12.5425 66.6057 12.7177 66.6057 12.7177V15.8358C66.6057 15.8358 63.8816 14.8899 62.179 16.8869V26.1011H58.91V12.8929C58.91 12.8929 61.4298 12.8929 61.6682 12.8929C61.9406 12.8929 62.1449 13.1381 62.1449 13.3834V13.9439C62.7579 13.2082 64.0859 12.5425 65.1074 12.5425ZM31.1577 24.8749C30.9875 24.4545 30.8172 23.999 30.6469 23.6136C30.3745 22.983 30.1021 22.3874 29.8638 21.8268L29.8297 21.7918C27.4801 16.5365 24.9603 11.2112 22.3042 5.95596L22.2021 5.74575C21.9297 5.22022 21.6573 4.65966 21.3848 4.0991C21.0443 3.46847 20.7038 2.8028 20.159 2.17217C19.0693 0.770771 17.5029 0 15.8344 0C14.1318 0 12.5995 0.770771 11.4758 2.1021C10.965 2.73273 10.5904 3.3984 10.2499 4.02903C9.97747 4.58959 9.70506 5.15015 9.43264 5.67568L9.33048 5.88589C6.70849 11.1411 4.1546 16.4665 1.80502 21.7217L1.77097 21.7918C1.53261 22.3524 1.26019 22.9479 0.987778 23.5786C0.817519 23.964 0.64726 24.3844 0.477 24.8398C0.034326 26.1361 -0.101881 27.3624 0.0683779 28.6236C0.442948 31.2512 2.14554 33.4585 4.49512 34.4394C5.38047 34.8248 6.29987 35 7.25332 35C7.52573 35 7.86625 34.965 8.13867 34.9299C9.26238 34.7898 10.4201 34.4044 11.5439 33.7387C12.94 32.9329 14.268 31.7768 15.7663 30.0951C17.2646 31.7768 18.6266 32.9329 19.9887 33.7387C21.1124 34.4044 22.2702 34.7898 23.3939 34.9299C23.6663 34.965 24.0068 35 24.2793 35C25.2327 35 26.1862 34.8248 27.0375 34.4394C29.4211 33.4585 31.0896 31.2162 31.4642 28.6236C31.7366 27.3974 31.6004 26.1712 31.1577 24.8749ZM15.8003 26.6967C13.9615 24.3143 12.7697 22.0721 12.3611 20.1802C12.1908 19.3744 12.1568 18.6737 12.2589 18.043C12.327 17.4825 12.5314 16.992 12.8038 16.5716C13.4508 15.6256 14.5404 15.03 15.8003 15.03C17.0603 15.03 18.184 15.5906 18.7969 16.5716C19.0693 16.992 19.2736 17.4825 19.3417 18.043C19.4439 18.6737 19.4098 19.4094 19.2396 20.1802C18.831 22.037 17.6391 24.2793 15.8003 26.6967ZM29.387 28.3433C29.1487 30.1652 27.9569 31.7417 26.2883 32.4424C25.4711 32.7928 24.5857 32.8979 23.7004 32.7928C22.8491 32.6877 21.9978 32.4074 21.1124 31.8819C19.8866 31.1812 18.6607 30.0951 17.2305 28.4835C19.4779 25.6456 20.84 23.0531 21.3508 20.7407C21.5892 19.6547 21.6232 18.6737 21.5211 17.7628C21.3848 16.8869 21.0784 16.0811 20.6017 15.3804C19.546 13.8038 17.7753 12.8929 15.8003 12.8929C13.8253 12.8929 12.0546 13.8388 10.999 15.3804C10.5223 16.0811 10.2158 16.8869 10.0796 17.7628C9.94342 18.6737 9.97747 19.6897 10.2499 20.7407C10.7607 23.0531 12.1568 25.6807 14.3702 28.5185C12.974 30.1301 11.7141 31.2162 10.4882 31.9169C9.6029 32.4424 8.7516 32.7227 7.90031 32.8278C6.98091 32.9329 6.09556 32.7928 5.31236 32.4775C3.64382 31.7768 2.45201 30.2002 2.21365 28.3784C2.11149 27.5025 2.17959 26.6266 2.52011 25.6456C2.62227 25.2953 2.79253 24.9449 2.96279 24.5245C3.20115 23.964 3.47356 23.3684 3.74598 22.7728L3.78003 22.7027C6.12961 17.4825 8.64945 12.1572 11.2714 6.97197L11.3736 6.76176C11.646 6.23624 11.9184 5.67568 12.1908 5.15015C12.4633 4.58959 12.7697 4.06406 13.1443 3.60861C13.8594 2.76777 14.8128 2.31231 15.8684 2.31231C16.924 2.31231 17.8775 2.76777 18.5926 3.60861C18.9672 4.06406 19.2736 4.58959 19.546 5.15015C19.8185 5.67568 20.0909 6.23624 20.3633 6.76176L20.4654 6.97197C23.0534 12.1922 25.5732 17.5175 27.9228 22.7377V22.7728C28.1952 23.3333 28.4336 23.964 28.706 24.5245C28.8763 24.9449 29.0465 25.2953 29.1487 25.6456C29.4211 26.5566 29.5232 27.4324 29.387 28.3433Z" fill="white"/>
</svg>
